<?xml version="1.0" encoding="utf-8" ?>
<svg xmlns="http://www.w3.org/2000/svg" xmlns:xlink="http://www.w3.org/1999/xlink" width="1024" height="1024">
	<path d="M797.578 115.692C804.598 114.554 819.286 128.431 826.545 130.806C836.827 134.169 855.995 134.291 867.213 134.779C876.13 135.167 887.076 134.608 895.832 132.594C900.446 131.532 905.163 130.231 909.594 128.554C915.92 126.158 927.492 119.022 934.199 120.535C935.051 121.577 935.315 122.598 935.608 123.883C937.449 131.947 937.646 141.006 938.459 149.259C938.842 153.149 939.77 157.474 939.701 161.351C939.667 163.307 938.319 164.932 938.472 166.954C938.81 171.414 939.986 175.858 940.376 180.35C941.051 188.119 940.931 195.931 941.669 203.708C942.867 216.335 946.202 229.207 946.173 241.896C944.961 242.208 943.78 242.56 942.588 242.942C939.268 247.141 943.898 256.338 944.235 261.246C944.596 266.509 942.743 271.865 943.173 277.125C943.655 283.022 944.533 288.877 944.973 294.787C945.375 300.186 945.308 305.643 945.89 311.024C947.622 327.026 949.848 343.051 950.874 359.12C951.354 366.64 950.029 374.283 950.532 381.84C950.908 387.485 952.4 393.094 953.031 398.724C953.633 404.087 953.388 409.693 953.627 415.095C953.889 420.993 954.652 426.856 955.001 432.747C955.301 437.809 953.702 442.798 953.95 447.828C954.117 451.199 955.553 454.518 956.258 457.803C957.219 462.283 957.126 468.192 957.073 472.786C957.045 475.225 956.808 475.61 955.131 477.28C955.627 478.319 956.111 479.439 956.285 480.587C956.605 482.704 956.307 485.097 956.373 487.248C956.581 492.446 956.89 497.64 957.299 502.826C958.062 513.007 959.919 523.193 960.46 533.351C960.767 539.127 959.894 544.959 959.973 550.749C960.054 556.703 960.828 562.702 961.101 568.659C961.528 577.995 961.592 587.348 962.102 596.681C962.728 608.122 964.089 619.505 964.973 630.926C965.192 633.764 965.255 646.986 966.209 648.891C966.673 649.818 966.622 649.34 966.939 650.478C967.954 654.124 967.023 676.432 967.575 682.673C968.232 690.107 969.142 697.627 970.37 704.987C971.476 711.62 974.419 721.809 973.971 728.189C973.647 732.789 971.152 738.516 969.739 742.953C967.52 749.806 965.443 756.704 963.509 763.642C959.638 777.802 957.337 792.193 953.78 806.38C950.763 818.41 946.488 830.108 942.936 841.98C941.401 847.109 940.771 852.364 939.365 857.485C938.543 860.484 929.589 886.148 928.478 887.537C927.126 889.226 923.362 888.614 921.351 888.538C908.353 888.042 906.608 888.92 894.275 891.754C882.828 894.385 872.532 892.142 861.06 891.827C855.388 891.671 849.937 892.68 844.233 891.95C839.653 891.364 835.333 889.427 830.718 889.025C826.708 888.675 822.671 890.508 818.707 890.058C815.082 889.646 810.988 886.84 807.4 885.752C799.856 883.466 784.93 882.256 778.988 878.517C771.658 880.439 764.197 883.824 756.99 886.32C751.815 888.113 746.358 889.268 741.254 891.15C737.395 892.572 733.715 895.258 729.698 896.158C724.881 897.237 719.977 896.13 715.153 895.827C711.614 895.605 707.979 896.138 704.432 896.194C699.787 896.268 694.751 895.661 690.164 894.914C685.539 894.161 681.244 892.191 676.682 891.309C672.239 890.449 667.394 890.692 663.135 889.055C659.499 887.657 656.571 884.145 653.134 882.239C649.127 880.016 622.57 877.054 617.165 877.03C615.394 877.022 613.216 877.89 611.503 878.375C608.053 882.686 604.44 885.531 599.646 888.229C582.514 897.871 571.092 895.351 552.527 895.66C548.166 895.733 543.774 897.009 539.424 896.5C533.061 895.756 527.068 893.334 520.947 891.616C512.383 889.214 495.983 886.945 487.657 889.205C483.675 890.285 480.277 892.653 476.705 894.636C462.353 902.609 462.443 899.107 448.524 901.52C440.216 902.961 432.179 904.916 423.706 905.292C420.198 905.447 416.796 904.496 413.349 903.997C409.203 903.397 404.956 903.42 400.832 902.666C394.545 901.518 386.294 898.288 380.265 895.95C373.039 893.149 366.348 889.076 358.811 887.02C353.277 885.51 351.299 886.816 346.562 889.545L346.492 896.219C345.454 897.046 344.359 897.944 343.148 898.504C335.604 901.993 325.872 901.398 317.828 902.614C312.712 903.388 308.03 906.171 302.816 906.863C286.248 909.063 273.294 904.013 257.843 902.257C254.755 901.906 251.335 903.132 248.229 903.364C242.387 903.802 233.431 900.792 228.014 898.606C224.771 899.568 221.724 900.014 218.367 900.283C206.091 902.483 194.874 908.138 182.119 908.258C170.91 908.363 159.921 904.272 148.887 902.743C136.415 901.015 123.59 900.941 111.07 899.288C107.005 898.751 103.055 896.052 98.892 896.448C97.4199 896.589 97.0284 898.044 95.5205 898.258C92.8224 898.64 69.4609 898.446 66.724 897.735C63.3872 896.869 60.8809 895.287 58.1918 893.239C57.9426 892.561 57.7114 891.879 57.4655 891.2C52.4043 877.231 57.9847 868.113 58.1967 855.242C58.2415 852.518 56.4915 849.499 56.0583 846.755C55.0739 840.519 55.3738 831.184 55.8233 824.81C56.1719 819.868 59.2312 815.27 59.5275 810.521C59.8299 805.672 56.4315 798.347 56.7156 791.641C57.0041 784.831 60.0412 778.578 60.3662 771.98C60.5619 768.006 58.1437 764.65 58.3547 760.06C58.533 756.183 60.2569 752.413 60.3272 748.618L61.5208 690.209C61.6381 685.368 64.0237 680.665 64.0832 675.832C64.1199 672.85 61.4748 671.308 61.8272 666.239C62.1718 661.282 63.8395 656.537 64.4613 651.621C65.6086 642.548 65.9777 632.834 66.3451 623.687C66.5788 617.87 66.8785 611.809 66.5727 605.995C66.2354 599.582 65.3369 593.482 65.6101 587.025C65.8857 580.511 66.9022 574.116 67.5008 567.635C67.9272 563.018 67.9412 558.353 68.4477 553.748C68.6676 551.75 69.7758 548.205 69.493 546.456C69.3787 545.75 68.4936 544.366 68.1612 543.672C65.9897 539.134 68.9265 522.819 68.9129 516.764C68.8976 509.915 67.7442 502.617 67.167 495.738C67.0478 494.318 66.8676 493.241 67.3665 491.868C70.1528 484.202 66.1556 474.904 68.3808 467.013C70.2622 460.342 68.2217 459.118 67.1615 452.951C66.6667 450.074 66.7833 446.943 66.8456 444.033C66.9575 438.805 68.1501 433.451 68.1064 428.292C68.0846 425.714 66.7856 423.392 66.9188 420.748C67.679 405.667 69.6895 390.759 69.7298 375.611C69.7439 370.296 69.0114 364.985 68.7139 359.681C68.4606 355.166 68.729 329.631 69.9101 327.026C70.15 326.497 70.6866 326.162 71.0749 325.73L69.9111 324.811C70.382 310.574 69.866 295.733 72.0286 281.626C73.0547 274.932 74.6285 266.451 77.2117 260.186C78.4193 257.256 81.2522 255.377 82.5664 252.398C84.4577 248.111 85.8482 243.614 87.848 239.37C91.5116 231.596 96.1743 224.144 100.158 216.499C109.293 198.967 119.016 181.765 128.204 164.268C132.14 156.773 135.719 149.065 139.587 141.526C141.896 137.026 148.832 120.698 152.112 118.534C159.06 113.951 183.045 129.452 190.899 131.463C195.036 132.523 199.266 131.392 203.44 132.024C208.594 132.805 213.63 134.478 218.785 135.35C223.933 136.221 226.996 134.562 231.871 133.787C250.39 130.841 252.235 133.805 268.701 122.027C272.833 121.75 276.787 121.978 280.904 122.372C285.172 125.72 289.384 128.451 294.484 130.389C302.382 133.39 309.624 133.742 317.864 134.585C323.032 135.115 328.119 136.306 333.315 136.512C347.63 137.082 366.714 133.433 380.044 128.218C386.444 125.715 391.792 121.267 398.029 118.564C413.727 111.759 426.526 127.096 441.501 129.202C446.945 129.967 455.817 130.852 461.249 130.642C466.65 130.432 472.023 129.682 477.433 129.606C482.802 129.53 488.996 130.271 494.23 129.066C504.749 126.643 529.307 117.825 538.248 118.163C544.693 118.407 548.859 122.166 554.547 124.389C561.029 126.923 573.758 129.66 580.696 130.076C588.748 130.56 626.099 126.699 633.34 123.559C633.926 122.346 634.501 120.991 635.257 119.876C636.096 118.638 637.748 117.837 639.118 117.315C650.375 113.028 665.315 124.09 675.244 128.093C679.522 129.818 683.996 130.725 688.53 131.488C689.54 131.658 692.241 132.432 693.152 132.228C694.815 131.857 696.108 130.156 697.959 129.889C702.194 129.276 707.937 133.504 712.491 134.116C719.053 134.997 727.318 133.62 733.849 132.625C742.435 131.318 750.599 129.127 759.02 127.088C764.208 125.833 769.595 124.934 774.686 123.331C782.599 120.839 789.222 117.135 797.578 115.692Z"/>
	<path fill="#76D1F3" d="M608.623 273.02C620.522 272.697 631.555 275.198 643.26 276.547C648.007 277.094 652.785 276.886 657.536 277.287C660.997 277.579 664.543 278.255 668.013 278.282C672.095 278.314 675.943 275.303 679.985 274.729C689.554 273.37 699.821 274.136 709.495 273.874C718.341 273.635 727.817 272.21 736.578 273.284C742.511 274.011 745.95 278.481 749.434 282.811C749.785 294.027 749.826 305.238 750.101 316.453C750.229 321.639 750.71 326.82 750.773 332.003C750.912 343.491 750.686 354.82 751.545 366.307C753.559 390.257 755.818 414.187 758.321 438.092C759.059 444.689 760.443 451.223 761.086 457.817C761.52 462.262 761.359 466.777 761.526 471.24C761.761 477.513 762.375 483.874 762.877 490.136C763.456 497.352 764.553 504.518 764.963 511.751C765.958 529.294 763.384 546.773 764.517 564.282C764.773 568.254 766.434 572.05 767.133 575.954C768.082 581.257 768.389 586.842 768.874 592.209C769.669 601.005 770.625 610.308 770.66 619.117C770.684 624.956 769.831 630.849 770.114 636.677C770.854 651.92 773.152 667.095 773.486 682.408C773.975 701.139 774.086 719.878 773.821 738.613C773.656 746.468 772.155 754.185 772.49 762.074C772.893 771.596 776.473 780.688 776.924 790.216C777.301 798.171 777.477 806.388 777.218 814.34C776.92 823.535 776.211 832.744 776.865 841.944C777.399 849.452 780.895 858.159 779.341 865.607C773.781 869.554 766.088 872.354 759.769 875.042C755.81 876.481 751.556 877.205 747.53 878.481C739.979 880.874 732.425 883.998 724.675 885.628C710.818 888.543 698.441 885.221 685.181 881.777C681.24 880.753 677.137 880.117 673.295 878.762C668.269 876.989 663.503 874.429 658.53 872.501C652.413 870.128 646.244 868.076 640.185 865.51C635.279 863.433 629.503 862.124 625.069 859.225C625.051 859.179 625.035 859.132 625.015 859.086C622.817 853.849 622.937 847.254 622.561 841.639C621.743 829.412 621.371 817.253 621.319 804.994C621.288 797.632 621.689 790.221 621.334 782.871C620.968 775.286 618.916 767.73 618.746 760.256C618.645 755.782 619.385 751.353 619.568 746.894C619.783 741.679 619.579 736.431 619.691 731.208C619.801 726.096 620.261 720.993 620.368 715.882C620.554 706.951 619.291 697.966 619.478 688.972C619.616 682.303 621.267 675.734 621.361 669.086C621.498 659.383 619.681 649.474 619.59 639.713C619.515 631.726 620.412 623.71 620.481 615.705C620.607 601.082 619.749 586.562 618.701 571.982C618.065 563.154 615.878 554.5 615.293 545.706C614.67 536.34 615.038 526.893 614.617 517.509C614.328 511.065 613.21 504.685 612.951 498.248C612.675 491.366 612.848 484.535 612.197 477.661C611.572 471.057 609.401 464.658 608.686 458.072C608.174 453.356 608.133 448.557 607.796 443.822C607.501 439.672 606.829 435.558 606.508 431.412C605.82 422.522 605.378 413.566 604.255 404.718C602.97 394.596 600.572 384.624 599.919 374.417C599.273 363.563 599.18 352.683 599.64 341.819C599.925 336.28 600.89 330.708 600.793 325.164C600.704 320.078 599.262 315.003 598.774 309.933C598.301 305.028 599.409 300.626 599.661 295.795C599.864 291.914 599.153 287.699 599.86 283.889C600.856 278.52 604.443 275.95 608.623 273.02Z"/>
	<path d="M694.519 460.571C697.011 460.449 699.576 460.759 701.797 461.978C705.481 464 707.755 469.776 709.42 473.462C712.994 481.37 715.381 490.065 718.249 498.263C720.864 505.741 723.763 513.151 726.191 520.691C728.024 526.387 729.451 532.21 731.313 537.896C732.763 542.327 734.611 546.632 735.98 551.087C736.982 554.348 737.484 557.339 735.707 560.455C734.428 562.699 732.182 564.313 729.68 564.918C727 565.551 724.178 565.072 721.856 563.591C717.501 560.868 716.224 554.146 715.169 549.482C707.66 549.132 700.143 548.967 692.625 548.987C686.315 549.13 679.993 549.021 673.682 548.989C673.032 552.125 671.959 555.422 670.766 558.39C669.04 562.682 666.596 564.996 662.43 566.785C659.773 566.577 657.167 566.146 654.539 565.72C653.032 563.902 650.948 561.833 650.385 559.489C650.1 558.299 650.104 557.146 650.365 555.95C651.961 548.649 657.828 534.947 660.699 527.288C663.685 519.321 666.19 511.171 669.229 503.237C672.049 495.875 675.346 488.639 678.46 481.395C680.645 476.314 682.649 470.589 685.59 465.903C687.776 462.422 690.767 461.506 694.519 460.571Z"/>
	<path fill="#76D1F3" d="M694.926 494.405C695.388 494.912 695.286 494.682 695.466 495.298C698.94 507.187 704.336 517.573 705.848 530.105C701.376 529.822 696.85 529.36 692.377 529.783C688.183 530.111 683.987 530.414 679.789 530.691C681.744 524.254 683.885 517.346 686.711 511.24C689.334 505.572 692.597 500.207 694.926 494.405Z"/>
	<path d="M706.425 721.055C710.212 720.752 714.884 721.019 718.278 722.807C721.65 724.584 723.855 727.795 724.779 731.447C726.267 737.327 724.262 744.322 721.092 749.356C717.287 755.398 712.737 757.616 706.076 759.176C702.459 759.672 699.101 759.323 695.695 757.938C692.11 756.481 689.243 753.775 687.813 750.155C685.869 745.233 686.934 739.389 689.169 734.745C692.697 727.415 699.071 723.631 706.425 721.055Z"/>
	<path fill="#FF8968" d="M710.514 728.559C714.079 728.747 715.145 730.249 717.5 732.651C717.71 739.789 716.437 742.971 712.176 748.582C708.631 750.127 705.587 751.297 701.746 751.79C699.307 751.296 697.039 750.168 694.761 749.19C694.577 745.391 694.842 741.368 696.542 737.901C699.36 732.156 704.885 730.407 710.514 728.559Z"/>
	<path fill="#76D1F3" d="M175.84 279.736C179.173 279.798 182.683 279.743 185.978 280.292C192.761 281.423 195.766 285.958 200.28 290.503C202.11 292.345 204.252 294.152 205.742 296.285C206.611 297.528 206.966 298.806 207.23 300.289C210.113 316.463 206.449 333.777 207.072 350.18C207.343 357.294 208.118 364.394 208.539 371.503L211.703 428.181C212.203 438.61 211.986 449.07 212.426 459.507C212.992 472.928 214.169 486.303 214.349 499.748C214.503 511.261 214.209 522.801 214.435 534.318C214.562 540.826 215.71 547.277 216.133 553.766C216.597 560.891 216.464 568.144 216.496 575.284C216.528 582.571 215.548 589.716 215.532 596.964C215.513 604.848 218.957 615.584 217.681 622.013C216.1 629.983 217.362 653.614 218.489 661.7C219.521 669.102 221.46 676.256 221.47 683.795C221.486 697.324 219.557 710.772 219.406 724.323C219.301 736.218 219.305 748.113 219.417 760.007C219.457 762.123 220.61 763.962 220.575 765.933C220.4 775.582 216.634 787.07 216.415 797.892C216.231 806.992 216.303 816.438 217.07 825.51C217.571 831.445 218.678 837.425 218.812 843.375C218.959 849.913 218.054 856.51 217.733 863.039C217.338 871.085 217.456 879.173 217.071 887.241C210.728 887.987 205.8 890.438 200.136 893.131C191.839 897.074 181.423 895.414 172.538 895.1C166.132 894.874 159.705 895.339 153.307 894.986C141.903 894.357 127.345 891.432 116.631 887.652C110.263 885.909 96.2969 884.648 89.7693 885.237C84.9913 885.667 80.4038 886.895 75.5637 886.945C72.3286 886.979 68.691 887.087 66.2608 884.676C66.0989 884.175 68.4067 865.539 68.5554 862.527C69.1447 850.583 68.8026 838.691 68.9973 826.75C69.0954 820.733 69.9398 814.744 70.0212 808.734C70.1148 801.818 69.7199 794.955 70.1106 788.032C71.4754 763.844 75.3432 739.825 76.5817 715.656C77.0463 706.588 74.9037 698.012 75.1607 689.315C75.4257 680.344 76.756 671.356 77.1197 662.353C77.7053 647.863 76.9327 633.332 77.3882 618.843C77.5833 612.638 78.4366 606.464 78.743 600.265C79.554 583.685 80.1408 567.096 80.5032 550.501C80.7103 539.987 80.0113 529.474 80.1749 518.99C80.5131 497.317 81.7292 475.804 81.5197 454.106C81.4337 445.192 79.9777 436.273 79.9941 427.454C80.0036 422.386 81.203 417.35 81.2059 412.262C81.2091 406.799 79.151 401.498 79.2178 396.009C79.3316 386.645 80.2599 376.956 81.3453 367.648C81.8649 363.192 82.8656 358.731 82.9933 354.244C83.2016 346.921 80.3114 340.006 80.8628 332.451C81.3318 326.027 84.1288 319.971 84.4238 313.623C84.8775 303.861 82.2271 290.206 86.264 281.464C105.662 285.529 129.568 286.26 149.288 283.66C158.233 282.48 166.767 280.373 175.84 279.736Z"/>
	<path d="M110.855 464.164C119.562 463.296 146.326 464.052 154.696 465.806C163.445 467.639 171.388 473.405 176.225 480.887C185.264 494.867 184.664 516.432 181.09 532.021C178.678 542.539 172.591 552.898 163.266 558.66C158.096 560.706 152.754 562.509 147.352 563.837C138.817 565.936 111.25 569.71 104.498 564.991C102.836 563.83 102.561 562.168 102.189 560.295C100.357 551.071 102.921 542.572 103.546 533.465C103.843 529.127 103.229 524.709 103.358 520.343C103.509 515.241 104.319 510.134 104.348 505.035C104.391 497.441 102.568 490.091 103.059 482.395C103.333 478.098 103.909 468.877 106.705 465.621C107.964 464.155 109.062 464.374 110.855 464.164Z"/>
	<path fill="#76D1F3" d="M130.53 481.11C135.792 480.871 141.525 480.864 146.705 481.921C152.663 483.136 157.614 486.131 160.893 491.327C165.949 499.337 167.852 513.825 165.617 522.941C163.56 531.329 158.937 537.022 151.66 541.496C143.364 545.482 135.141 545.683 126.099 545.37C125.206 544.274 124.228 543.148 123.539 541.91C121.825 538.832 122.289 534.503 122.119 531.081C121.334 515.303 121.738 498.634 125.649 483.217L130.53 481.11Z"/>
	<path fill="#FF8968" d="M239.73 276.653C250.186 275.051 262.192 279.417 272.578 280.985C280.575 282.193 289.128 282.692 297.223 282.453C309.27 282.097 321.537 274.898 333.763 277.516C336.644 278.133 337.917 279.64 339.512 281.996C340.933 284.096 342.236 286.177 342.762 288.692C343.782 293.57 343.638 299.018 344.017 303.993L346.22 333.237C347.362 350.381 349.421 367.508 350.308 384.64C350.568 389.666 351.003 394.782 350.919 399.813C350.786 407.806 349.947 415.827 350.13 423.818C350.37 434.329 351.326 444.828 351.614 455.346C352.322 481.164 352.415 507.03 352.692 532.846C352.83 545.768 354.669 558.884 355.208 571.817C355.409 576.636 354.519 581.443 354.701 586.251C355.129 597.532 355.523 609.067 356.381 620.315C356.92 627.377 357.851 634.378 358.153 641.466C358.372 646.594 357.973 651.683 357.943 656.807C357.901 664.165 358.189 671.639 358.387 678.998C358.495 682.993 359.566 686.903 359.616 690.798C359.721 698.923 358.383 707.062 358.492 715.195C358.581 721.853 360.004 728.497 359.97 735.13C359.945 740.106 359.303 745.103 359.145 750.082C358.374 774.37 356.821 798.691 356.702 823.001C356.666 830.436 358.015 837.538 358.783 844.889C359.641 853.112 359.393 863.989 357.812 872.103C349.814 878.224 340.604 884.002 331.159 887.494C324.546 890.173 318.307 892.565 311.305 894.07C289.037 898.853 246.602 895.954 227.004 883.294C222.708 873.141 226.57 862.842 226.633 852.363C226.734 835.338 225.433 818.324 225.93 801.269C226.352 786.766 228.346 772.191 228.511 757.652C228.598 749.99 226.115 742.486 226.321 734.867C226.568 725.72 229.2 716.516 229.15 707.782C229.043 688.914 228.522 669.822 227.363 651.006C227.054 645.994 227.236 640.828 226.712 635.85C226.389 632.779 224.856 629.936 224.577 626.832C224.024 620.671 225.771 614.292 225.432 608.088C225.276 605.232 224.357 602.365 223.793 599.565C222.935 595.309 223.481 590.348 223.484 586.001L223.364 562.053C223.25 550.263 222.529 538.512 222.501 526.702C222.478 517.521 223.23 508.264 222.872 499.106C222.439 488.013 220.886 476.968 220.624 465.852C220.512 461.104 222.462 456.68 222.344 452.393C222.054 441.909 218.572 429.814 217.719 419.011C217.203 412.476 216.534 405.842 216.437 399.29C216.308 390.627 216.885 381.964 216.511 373.299C216.157 365.094 214.767 355.408 214.705 347.501C214.687 345.244 215.269 343.029 215.258 340.74C215.221 333.258 214.724 325.741 214.572 318.251C214.418 310.64 213.614 302.547 214.21 294.979C214.45 291.926 215.362 289.088 217.113 286.555C222.364 278.96 231.386 277.97 239.73 276.653Z"/>
	<path d="M295.743 463.194C300.317 462.797 304.687 463.671 309.233 463.875C313.231 464.056 317.244 463.549 321.249 463.753C325.795 463.985 331.072 465.219 335.477 463.919C337.671 463.272 340.036 462.7 342.317 463.064C343.727 463.908 344.719 464.903 345.352 466.437C347.124 470.727 345.866 475.841 344.231 479.946C334.973 479.634 326.505 481.104 317.371 482.076C313.454 482.494 309.463 482.541 305.528 482.847C303.762 484.393 302.164 486.17 300.529 487.853C300.562 491.952 298.97 496.778 300.75 500.633C305.171 501.561 310.066 501.294 314.585 501.602C319.323 501.924 324.023 502.625 328.742 503.135C331.232 503.404 332.517 504.181 334.546 505.593C334.572 508.408 335.228 511.47 334.979 514.233C334.837 515.802 334.081 518.3 332.627 519.145C328.857 521.339 302.909 518.78 299.68 521.603C298.403 527.951 299.344 537.24 301.98 543.122C307.495 547.317 329.932 548.358 337.54 548.507L336.873 548.213L337.616 548.067L337.548 547.448C340.653 547.106 343.187 546.691 346.181 547.817C346.856 549.9 347.777 552.211 347.942 554.397C348.094 556.415 347.561 558.427 346.207 559.959C339.292 567.778 313.188 564.962 303.366 564.908C299.761 564.888 296.268 565.585 292.697 565.698C289.707 565.792 286.238 565.422 284.046 563.146C282.362 561.397 282.503 559.117 282.372 556.848C281.712 545.422 282.991 533.847 283.028 522.376C283.067 509.974 282.281 497.606 282.281 485.231C282.281 479.132 282.787 472.979 283.129 466.89C287.166 464.302 291.151 464.06 295.743 463.194Z"/>
	<path d="M287.502 736.025C292.186 737.449 296.407 734.971 302.151 737.326C309.772 740.45 312.177 747.537 315.005 754.537C312.119 763.2 306.776 766.749 299.71 771.715C296.513 773.855 292.226 774.526 288.424 774.103C284.068 773.618 280.214 771.506 277.603 767.955C274.895 764.273 274.165 759.855 274.948 755.407C276.301 747.732 281.141 740.436 287.502 736.025Z"/>
	<path fill="#FF8968" d="M292.503 745.51C293.437 745.695 294.263 745.84 295.22 745.82C298.152 745.761 302.421 745.837 304.813 747.836C305.828 748.685 306.474 749.647 306.52 751.007C306.703 756.456 299.833 761.781 296.124 765.163C295.617 765.628 295.107 766.14 294.466 766.428C292.903 767.128 290.398 767.373 288.749 766.822C286.881 766.199 285.481 764.577 284.64 762.851C283.178 759.85 283.46 756.199 284.651 753.158C286.159 749.309 288.857 747.189 292.503 745.51Z"/>
	<path fill="#FFA337" d="M881.182 269.782C882.613 269.739 886.239 270.888 887.271 272.014C890.18 275.189 891.598 334.636 892.273 343.649C892.92 352.292 894.963 360.941 894.865 369.62C894.761 378.862 890.999 387.924 891.487 396.98C891.818 403.111 893.917 409.191 894.73 415.286C895.712 422.642 894.96 430.253 895.614 437.665C896.21 444.42 898.296 450.993 898.997 457.736C899.939 466.804 898.304 475.993 899.24 484.913C900.224 494.301 903.107 503.706 903.543 513.106C903.91 521.002 902.481 528.885 902.786 536.865C903.04 543.538 905.132 550.08 905.084 556.664C905.047 561.734 903.35 566.688 903.49 571.758C903.686 578.84 905.423 585.871 905.698 593.044C905.953 599.706 904.601 606.262 904.825 612.892C905.078 620.405 905.045 628.172 905.686 635.647C905.995 639.257 906.927 642.824 907.176 646.43C907.448 650.383 906.978 654.505 907.123 658.5C907.372 665.399 908.081 672.287 908.33 679.198C908.572 688.378 908.641 697.563 908.539 706.746C908.473 711.569 908.007 716.542 908.308 721.353C908.619 726.331 909.756 731.282 910.233 736.255C910.761 741.757 910.395 747.314 910.931 752.822C911.949 763.283 913.838 773.759 914.45 784.246C914.816 790.525 913.496 796.762 913.811 802.997C914.14 809.522 915.252 815.993 915.735 822.506C916.485 832.606 916.617 842.754 917.246 852.858C917.704 860.192 918.732 867.634 919.42 874.969C912.366 876.387 905.811 879.473 898.962 881.609C887.121 885.302 881.242 882.201 869.926 882.252C862.745 882.284 856.093 883.906 849.023 884.38C842.187 884.838 819.255 881.898 813.035 879.944C809.783 878.923 806.789 877.249 803.789 875.657C798.754 872.867 793.461 870.474 788.254 868.019C786.505 858.834 785.448 848.73 785.455 839.378C785.459 834.022 786.067 828.668 785.994 823.316C785.911 817.205 784.963 811.101 784.678 804.996C784.39 798.85 784.705 792.673 784.379 786.526C783.91 777.685 780.868 769.076 780.506 760.051C780.038 748.352 781.265 736.98 781.511 725.352C781.627 719.9 781.142 714.427 781.076 708.972C780.982 701.311 781.238 693.65 781.162 685.991C781.047 674.524 778.747 663.082 778.179 651.619C777.951 647.01 778.146 642.384 777.898 637.776C777.507 630.538 776.753 623.419 776.725 616.155C776.699 609.461 777.579 602.653 777.292 595.995C776.72 582.734 772.845 569.943 772.034 556.777C771.677 550.977 772.207 545.109 772.429 539.306C772.779 530.118 772.944 520.639 772.347 511.465C771.359 496.259 769.961 481.062 768.869 465.86C768.205 456.614 768.043 447.329 767.059 438.11C765.112 419.884 761.613 401.829 760.549 383.488C760.13 376.279 761.311 368.957 761.053 361.725C760.726 352.556 758.58 343.277 758.662 334.099C758.708 328.985 760.495 324.054 760.324 318.962C760.116 312.787 758.913 306.603 758.349 300.451C757.632 292.633 757.533 284.308 757.514 276.446C759.224 275.184 761.011 274.008 762.758 272.797C772.64 272.662 779.266 275.226 788.669 276.32C794.659 277.018 800.891 276.15 806.931 276.414C817.512 276.875 827.593 278.872 838.319 278.495C848.293 278.144 856.809 274.188 866.31 271.777C871.228 270.528 876.141 270.163 881.182 269.782Z"/>
	<path d="M846.262 467.629C847.989 467.529 849.837 467.415 851.545 467.736C854.43 468.278 855.921 470.285 857.533 472.542C858.407 484.093 857.384 495.466 857.738 506.973C857.918 512.806 859.152 518.58 859.455 524.413C859.825 531.534 859.179 538.641 859.422 545.74C859.675 553.115 860.707 559.757 858.962 567.031C856.16 567.524 853.349 567.961 850.531 568.34C849.915 568.372 849.299 568.386 848.683 568.383C845.109 568.339 843.377 566.617 840.966 564.22C838.739 554.679 840.564 546.413 840.608 536.811C840.633 531.512 839.094 526.282 838.854 521.001C838.562 514.582 839.916 508.131 839.581 501.633C839.223 494.696 836.778 488.129 836.783 481.079C836.786 477.19 837.301 473.915 838.553 470.232C841.095 469.254 843.602 468.246 846.262 467.629Z"/>
	<path fill="#78FF66" d="M367.28 273.551C378.157 273.39 383.313 276.997 392.76 277.965C402.251 278.936 411.629 276.874 420.931 279.542C425.583 277.328 459.119 276.403 465.91 276.508C467.513 278.174 469.505 279.958 470.741 281.907C471.83 283.625 472.711 286.419 472.98 288.425C473.433 291.802 473.095 295.551 473.105 298.972C473.125 306.192 473.358 313.436 472.978 320.65C472.346 332.625 472.863 344.522 473.272 356.498C473.604 366.225 473.767 375.935 474.589 385.642C475.431 395.582 477.49 405.094 477.613 415.163C477.708 422.933 476.311 430.613 476.05 438.311C475.781 446.228 476.902 454.018 476.976 461.898C477.037 468.579 476.035 475.326 476.646 481.992C478.052 497.326 479.584 512.495 480.349 527.885C480.743 535.823 480.277 543.928 480.895 551.806C482.002 565.901 484.625 580.132 484.968 594.285C485.163 602.361 483.494 610.583 483.55 618.768C483.61 627.646 484.575 636.454 484.492 645.356C484.473 647.453 483.491 654.708 483.865 655.77C483.905 655.884 484.814 657.183 484.833 657.266C485.3 659.261 484.478 663.489 484.479 665.8C484.482 675.644 484.074 685.415 483.941 695.245C483.882 699.649 484.315 704.054 484.225 708.449C484.121 713.569 483.381 718.704 483.508 723.825C483.796 735.343 486.287 746.95 486.648 758.481C486.846 764.802 485.267 771.111 485.453 777.421C485.58 781.762 486.346 786.141 486.671 790.482C487.761 804.691 488.941 818.893 490.211 833.087C490.932 840.942 493.093 857.897 491.366 865.108C490.195 869.999 473.737 877.837 468.739 880.594C457.499 886.441 430.861 894.626 418.532 893.566C415.444 893.301 396.945 888.212 393.386 886.953C388.528 885.234 369.026 877.424 367.067 873.788C366.2 872.177 366.494 868.015 366.471 866.109C366.338 855.345 367.046 844.536 366.73 833.794C366.312 819.597 364.883 805.904 365.025 791.548C365.094 784.602 366.636 777.764 366.739 770.828C366.838 764.104 366.384 757.397 366.559 750.665C366.836 740.038 367.687 729.474 367.508 718.834C367.342 708.907 366.149 699.015 365.982 689.09C365.799 678.268 366.553 667.428 366.263 656.585C366.095 650.318 364.905 644.147 364.629 637.893L360.549 545.11C360.159 536.615 361.295 528.376 361.215 519.947C361.171 515.34 360.475 510.738 360.243 506.136C360.016 501.614 360.3 497.073 360.121 492.547C359.859 485.936 359.197 479.329 359.092 472.712C359.017 467.954 359.867 463.22 359.785 458.467C359.652 450.756 357.997 443.059 357.642 435.346C356.788 416.791 357.426 398.07 357.513 379.501C357.571 367.361 356.276 354.749 355.019 342.667C353.551 328.543 348.045 298.271 353.237 285.745C356.046 278.967 360.778 276.114 367.28 273.551Z"/>
	<path d="M406.647 460.871C409.046 462.269 412.804 461.632 415.49 461.652C426.542 461.733 439.818 463.898 447.741 472.156C453.035 477.674 456.285 484.224 456.038 492.036C455.674 503.523 446.938 513.108 439.153 520.666C442.932 529.764 457.183 545.877 457.127 555.137C457.111 557.756 455.568 559.244 453.824 560.997C450.417 561.935 446.518 563.25 442.988 562.44C437.245 561.122 436.004 553.432 433.711 548.825C432.373 546.136 430.664 543.561 429.064 541.021C426.018 536.775 421.769 533.631 418.142 529.89C412.965 528.286 408.095 527.153 402.682 526.716L399.513 530.875C399.222 537.864 399.271 557.245 394.893 561.859C392.48 563.13 385.11 562.412 382.428 561.732C382.055 560.26 381.737 558.763 381.332 557.3C379.466 550.55 380.955 542.079 381.084 535.048C381.165 530.617 380.655 526.198 380.683 521.767C380.721 515.72 381.178 509.68 381.221 503.634C381.308 491.158 379.622 477.714 381.534 465.328C386.896 459.918 398.686 462.498 405.661 461.084C405.99 461.017 406.318 460.942 406.647 460.871Z"/>
	<path fill="#78FF66" d="M419.457 476.197C423.255 476.059 426.275 475.943 429.678 477.951C434.127 480.576 437.178 485.622 438.277 490.595C439.011 493.919 438.717 497.375 436.781 500.251C432.916 505.992 424.517 508.012 418.124 509.169C413.882 510.385 405.74 509.479 401.62 508.005C399.7 505.434 400.588 488.235 400.593 483.833C401.302 482.667 402.011 481.444 402.907 480.411C406.614 476.143 414.245 476.592 419.457 476.197Z"/>
	<path d="M423.723 749.168C425.203 749.313 426.799 749.393 428.241 749.765C432.495 750.865 436.299 755.989 438.505 759.591C440.37 762.635 442.148 766.416 441.085 770.052C439.187 776.544 428.125 782.963 422.436 785.811C417.53 785.654 413.049 785.575 408.8 782.707C405.898 780.747 404.03 777.901 403.495 774.434C402.571 768.445 405.205 762.092 408.821 757.42C412.948 752.088 417.23 750.013 423.723 749.168Z"/>
	<path fill="#78FF66" d="M423.6 758.287C423.827 758.305 424.054 758.313 424.279 758.342C426.823 758.662 431.041 759.514 432.54 761.744C433.399 763.021 433.374 764.645 432.985 766.074C431.425 771.802 425.72 775.577 420.88 778.389C419.979 778.59 420.003 778.606 419.063 778.724C417.064 778.975 414.467 778.234 412.954 776.884C411.209 775.327 410.745 772.871 410.78 770.631C410.863 765.445 414.28 761.914 417.697 758.484L423.6 758.287Z"/>
	<path fill="#FFA337" d="M511.473 269.218C516.608 267.737 523.15 272.626 528.446 272.986C532.736 273.278 537.534 271.605 541.827 271.144C547.631 270.52 567.288 270.539 572.832 271.406C576.169 271.927 579.579 272.902 582.547 274.534C589.416 278.312 590.087 283.364 589.919 290.556C589.763 297.236 592.091 303.981 592.171 310.787C592.338 325 589.836 340.091 590.481 353.818C590.797 360.53 592.299 367.31 592.936 374.031C594.072 386.027 594.514 398.103 595.92 410.074C596.346 413.697 597.79 417.181 598.171 420.777C599.091 429.446 598.073 438.414 598.925 447.206C599.519 453.334 601.237 459.267 601.937 465.37C602.879 473.582 602.843 481.914 603.682 490.134C604.18 495.007 605.571 499.792 606.019 504.658C606.329 508.039 605.363 511.438 605.71 514.898C606.636 524.121 608.685 533.28 609.41 542.511C609.728 546.546 609.169 550.681 608.995 554.719C608.734 560.808 608.659 567.028 609.082 573.114C609.445 578.322 610.424 583.482 611.019 588.667C611.78 595.301 612.116 602.173 612.363 608.85C612.641 616.383 611.997 623.742 611.781 631.256C611.564 638.843 611.578 646.51 611.475 654.108C611.341 664.028 612.197 673.922 612.047 683.856C611.985 688 610.038 693.951 611.148 697.755C612.261 701.568 611.862 704.077 611.876 707.965C611.9 714.523 611.928 720.972 611.297 727.508C610.852 732.114 609.615 737.095 609.705 741.69C609.846 748.846 611.371 755.999 611.827 763.135C612.281 770.244 610.943 777.541 611.294 784.748C611.954 798.323 614.253 811.807 614.337 825.381C614.373 831.174 614.362 836.965 614.746 842.748C615.111 848.252 616.41 854.574 615.844 860.018C615.657 861.819 614.948 863.743 614.162 865.361C609.285 875.395 595.32 881.364 585.276 884.643C583.657 885.109 581.999 885.609 580.323 885.814C575.934 886.35 571.286 885.549 566.849 885.747C560.796 886.017 554.727 887.634 548.65 887.193C540.352 886.59 511.309 877.372 503.535 873.135C501.907 872.248 500.399 870.981 498.942 869.838C499.332 858.892 496.433 848.041 495.807 837.151C495.575 833.127 496.569 829.147 496.377 825.148C496.199 821.431 495.228 817.689 494.84 813.968C493.745 803.054 493.029 792.105 492.695 781.14C492.501 772.292 493.681 763.364 493.243 754.553C492.736 744.351 490.72 734.395 490.514 724.093C490.298 713.233 491.734 702.233 491.973 691.353C492.135 683.97 491.445 676.651 491.148 669.285C490.792 660.439 490.804 651.355 490.749 642.487C490.685 632.336 492.172 622.207 491.818 611.98C491.584 605.224 490.726 598.483 490.373 591.73C490.174 587.911 490.504 584.003 490.093 580.211C489.447 574.242 488.023 568.428 487.56 562.409C486.511 548.761 486.998 534.938 486.332 521.255C485.874 511.837 485.407 502.282 484.605 492.894C483.996 485.767 482.99 478.571 482.721 471.43C482.551 466.915 483.24 462.269 483.511 457.758C484.218 445.979 485.316 433.887 485.482 422.104C485.54 417.974 483.981 414.133 483.731 410.06C483.292 402.943 484.742 395.797 484.203 388.632C483.839 383.785 481.714 379.466 481.114 374.722C478.616 354.963 480.706 333.627 480.721 313.649C480.725 308.339 479.357 302.868 479.973 297.59C480.595 292.259 482.485 283.067 485.894 278.988C492.182 271.465 502.264 269.855 511.473 269.218Z"/>
	<path d="M530.13 470.232C540.332 463.177 555.053 460.319 567.25 462.463C576.772 464.137 586.262 468.175 591.809 476.449C594.369 480.268 595.979 484.377 594.99 489.01C594.364 491.943 592.025 497.159 589.29 498.655C588.399 499.142 587.394 499.234 586.42 498.881C576.48 495.271 573.591 471.465 549.677 480.788C546.799 481.91 544.09 483.418 542.724 486.335C541.643 488.645 541.656 491.334 542.595 493.686C544.161 497.606 547.576 499.761 551.346 501.237C557.958 503.826 565.015 504.229 571.917 505.604C581.482 507.508 593.905 512.586 598.248 521.896C601.71 529.319 601.791 539.647 598.801 547.22C595.944 554.455 590.235 559.878 583.131 562.858C571.682 567.662 551.566 566.789 540.094 562.021C532.062 558.682 525.288 552.555 522.058 544.385C520.834 541.286 519.296 536.902 520.811 533.709C521.75 531.729 524.357 529.616 526.472 529.032C528.518 528.467 531.273 528.556 533.125 529.677C536.336 531.62 538.249 536.57 540.491 539.565C546.177 547.166 558.707 549.316 567.627 547.367C571.29 546.567 574.794 544.643 576.847 541.419C578.712 538.491 578.838 535.134 577.994 531.863C577.719 530.811 577.423 529.765 577.109 528.725C558.62 512.133 522.594 527.614 520.635 492.745C520.4 488.565 520.743 484.644 521.826 480.59C521.605 479.837 521.348 479.045 521.411 478.247C521.617 475.621 523.693 471.158 526.249 469.914C527.698 469.208 528.703 469.81 530.13 470.232Z"/>
	<path d="M521.826 480.59C521.605 479.837 521.348 479.045 521.411 478.247C521.617 475.621 523.693 471.158 526.249 469.914C527.698 469.208 528.703 469.81 530.13 470.232C526.959 473.428 524.184 476.741 521.826 480.59Z"/>
	<path fill="#FFA337" d="M926.468 183.367L927.985 183.408C929.398 184.296 930.13 186.525 930.843 188.059C932.079 190.718 933.191 193.661 933.373 196.62C933.532 199.21 932.057 201.724 931.79 204.303C931.173 210.269 931.357 217.465 931.838 223.414C932.961 237.293 932.682 251.025 933.466 264.895C933.857 271.805 935.222 278.653 935.737 285.572C935.917 287.99 935.502 290.395 935.703 292.739C936.966 307.463 940.16 322.335 940.756 337.102C940.979 342.624 940.624 348.178 940.774 353.711C941.012 362.466 941.747 371.248 941.765 380.003C941.78 386.806 940.885 393.598 941.158 400.403C941.888 418.561 944.82 436.569 945.675 454.692C946.033 462.281 946.479 469.91 946.705 477.502C946.879 483.338 946.112 489.569 947.709 495.223C951.082 507.168 950.284 527.527 950.571 540.645C950.64 543.807 951.889 546.048 952.32 549.034C952.962 553.483 952.822 558.405 952.96 562.916C953.425 578.152 952.218 593.526 953.106 608.771C953.526 615.968 955.709 623.125 956.365 630.377C957.091 638.404 955.596 646.32 956.039 654.324C956.544 663.471 958.9 672.259 959.54 681.321C959.905 686.473 958.16 691.378 958.572 695.744C959.691 707.599 963.916 723.454 962.643 735.297C961.652 744.52 955.607 757.864 953.041 767.377C945.351 795.881 941.842 827.37 929.882 854.363L928.071 860.806C926.286 851.865 925.517 843.186 924.529 834.151C922.559 816.135 921.372 798.225 920.05 780.156C919.436 771.766 918.123 763.413 917.595 755.026C916.471 737.184 916.947 719.294 916.38 701.444C916.006 689.629 914.502 677.832 914.073 666.01C913.894 661.092 914.458 656.182 914.282 651.263C913.874 639.826 912.739 628.338 912.647 616.903C912.555 605.436 913.066 594.023 912.707 582.542C912.516 576.439 911.624 570.484 911.195 564.413C910.699 557.398 910.746 550.352 910.407 543.329C910.241 539.885 909.651 536.493 909.422 533.062C909.132 528.728 911.223 524.48 910.996 519.999C910.616 512.489 908.53 505.075 907.729 497.598C906.604 487.104 907.533 476.594 906.674 466.133C905.811 455.623 903.173 445.266 902.462 434.815C901.924 426.911 902.516 419.047 902.009 411.17C901.452 402.509 899.674 393.481 899.631 384.87C899.597 378.25 900.997 371.537 901.088 364.852C901.165 359.275 900.444 353.793 900.245 348.237C899.971 340.602 900.2 332.896 900.012 325.244C899.712 313.102 898.73 300.899 898.185 288.756C897.935 283.166 897.443 277.56 897.922 271.968C898.502 265.203 902.636 259.379 904.491 252.973L916.143 211.701C918.032 204.915 919.574 197.674 921.951 191.063C922.876 188.493 925.612 186.901 926.276 184.28C926.353 183.978 926.404 183.671 926.468 183.367Z"/>
	<path fill="#FFE8AA" d="M752.406 140.063C755.086 139.889 760.052 139.374 762.235 141.104C762.308 142.12 762.275 142.962 762.111 143.974C760.991 150.887 758.23 157.787 755.986 164.408C751.531 177.556 746.783 190.514 742.092 203.574C736.033 220.443 731.083 238.193 723.574 254.489C722.376 257.089 720.612 260.182 718.161 261.791C716.725 262.734 714.602 263.067 712.932 263.261C705.05 264.175 697.069 264.042 689.163 264.549C677.289 265.309 665.105 266.552 653.223 266.42C649.297 266.376 645.692 265.868 641.834 265.127C641.467 265.054 641.101 264.967 640.73 264.914C639.24 264.702 638.244 264.436 636.894 263.699C633.584 261.895 632.777 258.719 631.731 255.371C634.939 241.959 640.563 229.466 645.109 216.496C651.478 198.325 658.452 180.558 665.259 162.567C666.279 159.872 667.408 154.215 668.854 152.199C668.945 152.072 670.144 151.267 670.202 151.164C670.753 150.179 670.537 147.164 670.91 145.843C671.373 144.207 672.477 142.545 673.312 141.067C685.251 139.067 698.104 141.518 710.154 141.807C720.372 142.053 730.566 141.153 740.755 140.65C744.934 140.443 748.303 141.49 752.406 140.063Z"/>
	<path fill="#FFE8AA" d="M822.158 141.555C831.756 141.046 841.97 143.245 851.568 143.983C857.189 144.415 862.799 143.852 868.422 143.935C872.882 144.001 877.316 144.708 881.779 144.764C887.31 144.832 898.368 141.78 902.81 142.655C902.866 142.782 902.939 142.903 902.977 143.036C903.341 144.309 902.831 146.13 902.536 147.407C898.475 164.957 893.072 182.177 888.498 199.589C884.741 213.893 881.841 228.811 877.201 242.839C875.533 247.882 872.752 252.61 870.02 257.147C866.283 263.354 862.888 264.713 856.074 266.398C851.919 266.858 846.664 268.894 842.606 267.963C841.391 267.685 840.653 267.557 839.414 267.694C838.588 268.218 837.471 269.094 836.502 269.273C832.245 270.057 826.809 268.323 822.445 268.13C818.241 267.945 813.947 268.68 809.736 268.834C802.918 269.083 783.533 268.703 778.337 265.609C778.078 265.071 778.021 265.035 777.917 264.347C777.038 258.544 815.778 150.006 822.158 141.555Z"/>
	<path fill="#FFE8AA" d="M177.754 142.953C182.572 142.878 187.448 143.63 192.244 144.071C204.63 145.209 216.943 146.878 229.32 148.051C234.638 148.555 240.994 145.162 245.964 146.852C246.665 147.09 247.282 147.294 248.015 147.429L248.818 147.572L248.874 148.383L248.403 147.924L248.92 148.248C247.037 155.723 240.339 166.099 236.709 173.078L209.123 225.812L195.729 251.11C193.248 255.794 190.904 260.861 187.966 265.269C186.948 266.798 185.536 267.809 184.051 268.849C180.566 269.264 177.082 269.9 173.612 270.439C167.669 270.83 161.679 271.071 155.785 271.96C150.065 272.823 144.442 274.32 138.673 274.863C130.981 275.587 123.152 275.075 115.434 274.887C112.528 272.688 109.196 270.854 106.126 268.871C123.378 239.064 139.803 208.777 156.933 178.894C163.805 166.905 169.908 154.347 177.754 142.953Z"/>
	<path fill="#FFE8AA" d="M304.767 144.227C313.232 144.344 321.036 147.647 329.618 147.884C335.634 148.051 341.965 148.271 347.963 147.79C352.547 147.421 357.088 146.442 361.662 145.953C366.122 145.477 370.687 145.567 375.17 145.538C370.044 158.075 363.712 170.005 358.486 182.492C347.693 208.275 338.068 234.568 324.071 258.889C321.693 263.02 319.595 265.423 314.874 266.722C310.845 267.718 306.814 268.686 302.685 269.162C297.344 269.777 291.891 269.993 286.522 270.38C270.095 271.563 257.462 271.273 243.871 260.647C249.985 238.829 263.422 213.812 273.304 193.167C281.006 177.078 288.162 160.041 297.201 144.685L304.767 144.227Z"/>
	<path fill="#FFE8AA" d="M491.969 139.619C493.532 139.465 495.412 140.311 496.919 140.762C490.924 166.799 478.146 193.04 468.593 218.103C464.217 229.584 460.144 241.101 455.592 252.528C453.89 256.799 452.513 261.561 449.859 265.341C446.883 266.141 438.008 270.08 435.595 268.846C434.857 268.468 434.4 267.906 433.521 267.712C431.46 267.258 428.453 267.712 426.318 267.738C421.802 267.793 417.26 267.529 412.759 267.649C408.837 267.755 404.889 268.399 400.969 268.268C396.267 268.111 391.696 266.963 386.903 266.903C383.834 265.899 378.33 266.195 376.351 263.545C376.071 262.287 376.069 261.389 376.428 260.166C378.635 252.645 382.773 244.837 385.777 237.534C389.574 228.302 393.064 218.939 396.974 209.754C401.129 199.995 405.686 190.38 409.969 180.673L419.399 158.943C421.292 154.568 423.027 149.831 425.489 145.743C426.129 144.679 426.816 143.381 428.024 142.915C431.98 141.388 449.645 142.09 455.005 142.056C460.691 142.021 466.338 141.477 472.012 141.198C478.769 140.865 485.348 141.239 491.969 139.619Z"/>
	<path fill="#FFE8AA" d="M551.982 134.872C555.356 135.586 558.597 136.876 561.996 137.573C571.515 139.528 588.937 141.479 598.283 139.308C598.903 139.164 599.521 139.006 600.144 138.874C605.293 137.782 615.564 136.908 620.05 139.861C620.061 140.069 620.09 140.277 620.083 140.486C620.015 142.373 584.368 235.269 580.61 244.544C578.69 249.281 574.952 260.049 571.878 263.436C566.491 263.376 561.603 261.684 556.254 261.412C545.68 260.872 535.109 260.09 524.541 259.589C517.544 259.258 510.747 259.477 503.753 258.671C503.576 257.864 503.541 258.293 504.069 257.42L503.625 258.182C507.062 248.188 511.598 238.673 515.187 228.741C518.806 218.727 521.905 208.522 525.548 198.52C529.979 186.355 534.91 174.336 539.634 162.279C542.847 154.081 546.614 141.739 551.982 134.872Z"/>
	<path fill="#FDFCFC" d="M657.182 135.128L659.148 135.877C659.723 136.648 659.947 136.73 660.02 137.742C660.376 142.733 655.819 149.533 654.032 154.266C651.534 160.884 649.482 167.68 647.033 174.325C640.693 191.075 634.456 207.864 628.324 224.69C624.987 233.961 621.79 244.815 618.111 253.7C617.381 255.461 616.527 256.823 615.275 258.257C614.287 258.411 613.505 258.395 612.513 258.278L612.05 257.526C615.009 245.401 621.921 230.191 626.219 218.048L644.456 167.717C648.462 156.81 652.061 145.577 657.182 135.128Z"/>
	<path fill="#FDFCFC" d="M273.802 160.307C274.646 160.44 274.995 160.577 275.73 160.956C275.454 166.103 256.907 198.656 253.172 206.31C249.391 214.058 246.064 222.009 242.415 229.817C240.348 234.241 237.971 238.499 235.946 242.94C233.326 248.685 231.06 255.312 227.787 260.64C226.963 261.98 226.581 262.203 225.065 262.552C223.608 261.336 222.322 259.891 221.005 258.526C225.404 250.444 229.41 242.136 233.788 234.034C241.309 220.116 249.153 206.35 256.321 192.247C261.098 182.849 265.085 173.059 269.993 163.751C270.943 161.949 272.07 161.281 273.802 160.307Z"/>
	<path fill="#FDFCFC" d="M392.375 143.616C393.675 143.973 394.267 143.837 395.031 145.026C393.791 150.063 391.259 155.037 389.286 159.837C381.418 178.971 371.784 197.196 363.267 216.025C359.33 224.726 355.556 233.514 351.754 242.275C350.333 245.551 349.094 249.946 347.033 252.791L343.234 249.836C350.45 232.793 358.875 216.428 366.52 199.614C371.351 188.988 386.668 149.491 392.375 143.616Z"/>
	<path fill="#FDFCFC" d="M157.371 140.098C157.669 140.546 157.702 140.95 157.629 141.501C157.026 146.016 122.214 210.715 117.6 219.906C115.461 224.167 102.611 251.05 100.693 252.405C100.048 252.86 98.7786 252.275 98.0345 252.089C97.2266 251.69 96.7429 251.342 96.1276 250.683C97.1997 246.432 102.391 239.691 104.628 235.564C114.081 218.124 123.53 200.57 132.666 182.961C137.67 173.318 142.408 163.52 147.264 153.8C149.148 150.03 150.998 144.86 153.623 141.645C154.655 140.38 155.879 140.408 157.371 140.098Z"/>
	<path fill="#FDFCFC" d="M635.587 137.959L636.218 138.731C629.769 153.338 598.807 256.915 595.502 259.58C594.868 260.092 593.437 259.807 592.635 259.783L591.531 259.158C591.469 258.705 591.424 258.579 591.512 258.066C591.983 255.318 593.961 251.918 594.925 249.238C598.197 239.944 601.419 230.633 604.591 221.305L620.843 172.239C623.744 163.372 626.063 154.196 629.805 145.629C631.254 142.312 632.309 139.79 635.587 137.959Z"/>
	<path fill="#FDFCFC" d="M782.985 133.9L783.158 133.942C783.919 135.636 782.925 138.562 782.421 140.319C780.578 146.742 778.002 152.879 775.856 159.192L763.912 194.727C758.472 210.74 753.914 227.032 748.253 242.987C746.904 246.789 746.203 250.348 742.349 252.185C741.99 251.729 741.778 251.256 741.521 250.738C742.156 245.751 744.423 240.351 745.972 235.551C751.192 219.373 757.404 203.546 762.739 187.412C765.848 177.866 768.864 168.291 771.788 158.687C773.736 152.228 776.03 141.08 779.398 135.538C780.215 134.193 781.575 134.235 782.985 133.9Z"/>
	<path fill="#FDFCFC" d="M919.467 139.205C920.721 139.646 921.518 139.681 922.336 140.78C920.738 147.244 918.4 153.667 916.538 160.08L899.619 216.385C895.842 228.696 893.28 241.404 889.384 253.671C888.822 255.441 888.168 256.876 886.982 258.319C885.883 257.825 884.953 256.982 884.549 255.81C884.225 254.874 884.368 253.99 884.6 253.064C886.517 245.427 889.159 237.814 891.413 230.259L908.684 173.795C911.436 164.814 915.246 146.456 919.467 139.205Z"/>
	<path fill="#FDFCFC" d="M409.084 144.184C410.291 144.02 411.241 143.932 412.464 144.079L413.076 144.911C413.118 145.765 413.055 146.419 412.732 147.22C405.868 164.263 397.585 180.833 390.209 197.668L373.548 236.231C370.96 242.266 364.445 259.61 360.902 263.693C360.795 263.714 360.69 263.761 360.58 263.758C359.447 263.733 358.454 263.509 357.738 262.668C366.484 244.222 375.561 225.503 383.37 206.655C388.145 195.131 392.029 183.251 396.725 171.691C400.498 162.402 405.949 153.699 409.084 144.184Z"/>
	<path fill="#FDFCFC" d="M263.844 142.909C264.848 143.082 265.73 143.334 266.689 143.677C266.801 145.574 265.424 147.728 264.629 149.451C256.871 166.258 247.961 182.595 240.048 199.345C231.261 217.945 223.421 236.797 213.395 254.815C212.084 254.312 211.216 253.707 210.448 252.535C210.346 251.521 210.558 251.076 211.047 250.23C217.883 238.397 223.498 225.696 229.296 213.335C234.386 202.487 239.712 191.725 245.007 180.975C248.306 174.191 251.719 167.464 255.244 160.794C258.27 155.064 261.926 149.116 263.844 142.909Z"/>
	<path fill="#FDFCFC" d="M806.509 139.208C807.591 139.443 808.249 139.274 808.894 140.221C807.962 144.759 805.775 149.259 804.122 153.582C801.591 160.37 799.098 167.173 796.643 173.988L778.975 223.721C776.245 231.397 773.756 239.256 770.769 246.828C770.121 248.47 769.686 249.468 768.264 250.546L766.08 249.782L765.698 248.899C767.817 240.168 772.275 231.34 775.233 222.783C779.976 209.061 785.159 195.544 789.983 181.872C794.322 169.572 798.283 156.917 803.289 144.878C804.15 142.809 805.125 140.988 806.509 139.208Z"/>
	<path fill="#FDFCFC" d="M531.779 148.217L532.061 148.191L532.442 148.621C531.096 152.298 529.092 155.666 527.59 159.273L508.694 203.409C505.902 210.099 489.439 252.585 487.125 254.552C486.557 255.035 484.934 254.803 484.179 254.806C483.714 254.656 483.257 254.405 482.813 254.199C482.823 252.625 491.205 235.959 492.587 232.795C502.021 211.187 510.75 189.277 520.012 167.595C522.201 162.47 524.347 153.653 527.746 149.527C528.853 148.183 530.184 148.394 531.779 148.217Z"/>
	<path fill="#FDFCFC" d="M513.916 136.062C514.99 135.987 515.824 135.881 516.849 136.257C517.389 137.58 517.475 138.235 517.013 139.625C514.485 147.23 510.796 154.823 507.923 162.355C496.934 191.168 485.102 219.582 474.632 248.602C473.222 247.748 472.481 247.118 471.474 245.813C471.039 244.451 471.495 243.513 471.974 242.232C474.405 235.733 477.892 229.601 480.444 223.135C491.852 194.22 503.494 165.346 513.916 136.062Z"/>
</svg>
